<svg xmlns="http://www.w3.org/2000/svg" viewBox="0 0 800 500" preserveAspectRatio="xMidYMid slice" role="img" aria-label="Tulip beds in bloom in front of a glass conservatory">
<!-- Placeholder illustration standing in for a licensed photo (docs/mocks/README.md, "Images"). -->
<defs><linearGradient id="sky" x1="0" y1="0" x2="0" y2="1"><stop offset="0" stop-color="#DCE9F1"/><stop offset="1" stop-color="#FAF7F2"/></linearGradient></defs>
<rect width="800" height="500" fill="url(#sky)"/>
<path d="M250 260 Q400 120 550 260Z" fill="#E8F1F5" stroke="#9FB8C6" stroke-width="4"/><path d="M400 140 V260 M325 190 V260 M475 190 V260" stroke="#9FB8C6" stroke-width="3"/><rect y="260" width="800" height="240" fill="#8DBA7F"/><circle cx="40" cy="300" r="12" fill="#E07856"/><circle cx="80" cy="300" r="12" fill="#FFFFFF"/><circle cx="120" cy="300" r="12" fill="#D85B8A"/><circle cx="160" cy="300" r="12" fill="#F4C969"/><circle cx="200" cy="300" r="12" fill="#E07856"/><circle cx="240" cy="300" r="12" fill="#FFFFFF"/><circle cx="280" cy="300" r="12" fill="#D85B8A"/><circle cx="320" cy="300" r="12" fill="#F4C969"/><circle cx="360" cy="300" r="12" fill="#E07856"/><circle cx="400" cy="300" r="12" fill="#FFFFFF"/><circle cx="440" cy="300" r="12" fill="#D85B8A"/><circle cx="480" cy="300" r="12" fill="#F4C969"/><circle cx="520" cy="300" r="12" fill="#E07856"/><circle cx="560" cy="300" r="12" fill="#FFFFFF"/><circle cx="600" cy="300" r="12" fill="#D85B8A"/><circle cx="640" cy="300" r="12" fill="#F4C969"/><circle cx="680" cy="300" r="12" fill="#E07856"/><circle cx="720" cy="300" r="12" fill="#FFFFFF"/><circle cx="760" cy="300" r="12" fill="#D85B8A"/><circle cx="800" cy="300" r="12" fill="#F4C969"/><circle cx="40" cy="345" r="12" fill="#E07856"/><circle cx="80" cy="345" r="12" fill="#FFFFFF"/><circle cx="120" cy="345" r="12" fill="#D85B8A"/><circle cx="160" cy="345" r="12" fill="#F4C969"/><circle cx="200" cy="345" r="12" fill="#E07856"/><circle cx="240" cy="345" r="12" fill="#FFFFFF"/><circle cx="280" cy="345" r="12" fill="#D85B8A"/><circle cx="320" cy="345" r="12" fill="#F4C969"/><circle cx="360" cy="345" r="12" fill="#E07856"/><circle cx="400" cy="345" r="12" fill="#FFFFFF"/><circle cx="440" cy="345" r="12" fill="#D85B8A"/><circle cx="480" cy="345" r="12" fill="#F4C969"/><circle cx="520" cy="345" r="12" fill="#E07856"/><circle cx="560" cy="345" r="12" fill="#FFFFFF"/><circle cx="600" cy="345" r="12" fill="#D85B8A"/><circle cx="640" cy="345" r="12" fill="#F4C969"/><circle cx="680" cy="345" r="12" fill="#E07856"/><circle cx="720" cy="345" r="12" fill="#FFFFFF"/><circle cx="760" cy="345" r="12" fill="#D85B8A"/><circle cx="800" cy="345" r="12" fill="#F4C969"/><circle cx="40" cy="390" r="12" fill="#E07856"/><circle cx="80" cy="390" r="12" fill="#FFFFFF"/><circle cx="120" cy="390" r="12" fill="#D85B8A"/><circle cx="160" cy="390" r="12" fill="#F4C969"/><circle cx="200" cy="390" r="12" fill="#E07856"/><circle cx="240" cy="390" r="12" fill="#FFFFFF"/><circle cx="280" cy="390" r="12" fill="#D85B8A"/><circle cx="320" cy="390" r="12" fill="#F4C969"/><circle cx="360" cy="390" r="12" fill="#E07856"/><circle cx="400" cy="390" r="12" fill="#FFFFFF"/><circle cx="440" cy="390" r="12" fill="#D85B8A"/><circle cx="480" cy="390" r="12" fill="#F4C969"/><circle cx="520" cy="390" r="12" fill="#E07856"/><circle cx="560" cy="390" r="12" fill="#FFFFFF"/><circle cx="600" cy="390" r="12" fill="#D85B8A"/><circle cx="640" cy="390" r="12" fill="#F4C969"/><circle cx="680" cy="390" r="12" fill="#E07856"/><circle cx="720" cy="390" r="12" fill="#FFFFFF"/><circle cx="760" cy="390" r="12" fill="#D85B8A"/><circle cx="800" cy="390" r="12" fill="#F4C969"/><circle cx="40" cy="435" r="12" fill="#E07856"/><circle cx="80" cy="435" r="12" fill="#FFFFFF"/><circle cx="120" cy="435" r="12" fill="#D85B8A"/><circle cx="160" cy="435" r="12" fill="#F4C969"/><circle cx="200" cy="435" r="12" fill="#E07856"/><circle cx="240" cy="435" r="12" fill="#FFFFFF"/><circle cx="280" cy="435" r="12" fill="#D85B8A"/><circle cx="320" cy="435" r="12" fill="#F4C969"/><circle cx="360" cy="435" r="12" fill="#E07856"/><circle cx="400" cy="435" r="12" fill="#FFFFFF"/><circle cx="440" cy="435" r="12" fill="#D85B8A"/><circle cx="480" cy="435" r="12" fill="#F4C969"/><circle cx="520" cy="435" r="12" fill="#E07856"/><circle cx="560" cy="435" r="12" fill="#FFFFFF"/><circle cx="600" cy="435" r="12" fill="#D85B8A"/><circle cx="640" cy="435" r="12" fill="#F4C969"/><circle cx="680" cy="435" r="12" fill="#E07856"/><circle cx="720" cy="435" r="12" fill="#FFFFFF"/><circle cx="760" cy="435" r="12" fill="#D85B8A"/><circle cx="800" cy="435" r="12" fill="#F4C969"/>
</svg>
